<?xml version="1.0" encoding="UTF-8" standalone="no"?>
<!-- Created with Inkscape (http://www.inkscape.org/) -->

<svg
   width="199.94557mm"
   height="199.94557mm"
   viewBox="0 0 199.94557 199.94557"
   version="1.1"
   id="svg1"
   xml:space="preserve"
   sodipodi:docname="tinder.svg"
   inkscape:version="1.3.2 (091e20e, 2023-11-25, custom)"
   xmlns:inkscape="http://www.inkscape.org/namespaces/inkscape"
   xmlns:sodipodi="http://sodipodi.sourceforge.net/DTD/sodipodi-0.dtd"
   xmlns:xlink="http://www.w3.org/1999/xlink"
   xmlns="http://www.w3.org/2000/svg"
   xmlns:svg="http://www.w3.org/2000/svg"><sodipodi:namedview
     id="namedview1"
     pagecolor="#ffffff"
     bordercolor="#000000"
     borderopacity="0.25"
     inkscape:showpageshadow="2"
     inkscape:pageopacity="0.0"
     inkscape:pagecheckerboard="0"
     inkscape:deskcolor="#d1d1d1"
     inkscape:document-units="mm"
     inkscape:zoom="1.1697766"
     inkscape:cx="199.18333"
     inkscape:cy="262.01583"
     inkscape:window-width="3840"
     inkscape:window-height="2071"
     inkscape:window-x="7671"
     inkscape:window-y="-9"
     inkscape:window-maximized="1"
     inkscape:current-layer="svg1" /><defs
     id="defs1"><linearGradient
       id="linearGradient1"><stop
         style="stop-color:#7699d4;stop-opacity:1;"
         offset="0"
         id="stop1" /><stop
         style="stop-color:#9448bc;stop-opacity:1;"
         offset="1"
         id="stop2" /></linearGradient><linearGradient
       xlink:href="#linearGradient1"
       id="linearGradient2"
       x1="90.342293"
       y1="78.150681"
       x2="106.7948"
       y2="152.8405"
       gradientUnits="userSpaceOnUse"
       spreadMethod="pad" /></defs><g
     id="layer1"
     transform="translate(-5.8807526,-27.368116)"><path
       fill-rule="evenodd"
       fill="#eb4609"
       d="m 95.634631,34.792585 c 5.932229,1.75445 8.731259,4.25979 8.731259,4.25979 16.56635,11.117262 23.24073,30.725532 22.75416,41.010422 -0.0103,10.76113 -0.99774,10.92861 -2.4077,16.93333 -1.40997,6.480973 -2.00475,5.749133 0.29104,5.529793 2.77204,-0.21934 8.29654,-3.938323 10.05416,-9.498543 2.23388,-5.08397 3.175,-11.40354 3.175,-11.40354 0,0 7.13926,7.81843 10.02771,17.72708 2.11191,7.244563 2.81849,16.276513 0.55563,23.812503 -0.70913,3.1541 -3.26593,8.77673 -5.82084,12.96459 -5.05803,9.0764 -18.51977,16.33881 -28.31041,18.78541 -9.31439,2.44661 -11.52287,2.69796 -17.224389,1.05834 -5.7015,-1.63963 -9.65226,-2.41459 -18.25625,-8.20209 -8.60398,-5.78749 -18.83886,-19.1733 -19.31458,-28.575 -0.47572,-9.4017 0.66569,-20.194323 7.43479,-29.368753 7.24535,-9.17443 22.90445,-22.0935 27.75479,-32.80833 4.85034,-10.71483 0.55563,-22.225002 0.55563,-22.225002 z m 41.539589,43.418122 c 0.32623,0.4146 0.4146,0.59082 0.26458,0.76729 0.15002,-0.17647 0.0617,-0.35269 -0.26458,-0.76729 z"
       id="path1"
       style="fill:url(#linearGradient2);stroke-width:0.265;stroke-dasharray:none" /><path
       fill-rule="evenodd"
       fill="#eb4609"
       d="m 100.747,128.19586 c 0,0 0.60219,7.94094 -1.296456,14.55208 -1.268942,6.45504 -5.053542,11.8798 -5.053542,11.8798 -11.485562,-7.29219 -15.257197,-24.26177 -12.964583,-35.95688 2.292615,-11.21886 7.814204,-17.77973 11.1125,-21.986865 5.268648,-6.72069 16.139581,-14.2875 16.139581,-14.2875 -3.34301,9.31068 -3.60336,15.92262 -1.03187,24.103535 3.04773,8.65716 19.09207,16.56873 18.49437,29.36875 -0.59769,13.27626 -7.4586,16.81691 -9.76312,18.49437"
       id="path1-5"
       style="fill:#90fcf9;fill-opacity:1;stroke-width:0.264583" /><path
       fill-rule="evenodd"
       fill="#eb4609"
       d="m 144.82797,158.28377 c 0,0 9.10987,-4.43203 13.49375,4.23334 4.38388,9.14162 -4.47146,13.75833 -4.47146,13.75833 l -89.958335,41.77771 c 0,0 -9.862079,4.30953 -13.49375,-5.29167 -3.155421,-9.6012 4.7625,-12.96458 4.7625,-12.96458 z"
       id="path1-3"
       style="fill:#480355;fill-opacity:1;stroke-width:0.264583" /><path
       fill-rule="evenodd"
       fill="#eb4609"
       d="m 64.199305,158.60124 c 0,0 -9.109868,-4.67016 -13.493485,4.23333 -4.383881,8.9035 4.233069,13.52021 4.233069,13.52021 l 19.055291,9.03711 24.003797,-11.19135 z"
       id="path1-9"
       style="fill:#480355;fill-opacity:1;stroke-width:0.264583" /><path
       fill-rule="evenodd"
       fill="#eb4609"
       d="m 111.18676,202.15182 33.91693,15.66175 c 0,0 10.10047,4.30953 13.49402,-5.29167 3.39328,-9.6012 -4.7625,-13.20271 -4.7625,-13.20271 l -18.62138,-8.35633 z"
       id="path1-32"
       style="fill:#480355;fill-opacity:1;stroke-width:0.264583" /></g></svg>
