<?xml version="1.0" encoding="UTF-8" standalone="no"?>
<!-- Created with Inkscape (http://www.inkscape.org/) -->

<svg
   width="270.93332mm"
   height="270.93332mm"
   viewBox="0 0 270.93332 270.93332"
   version="1.1"
   id="svg1"
   xml:space="preserve"
   inkscape:version="1.3.2 (091e20e, 2023-11-25, custom)"
   sodipodi:docname="sas.svg"
   xmlns:inkscape="http://www.inkscape.org/namespaces/inkscape"
   xmlns:sodipodi="http://sodipodi.sourceforge.net/DTD/sodipodi-0.dtd"
   xmlns="http://www.w3.org/2000/svg"
   xmlns:svg="http://www.w3.org/2000/svg"><sodipodi:namedview
     id="namedview1"
     pagecolor="#ffffff"
     bordercolor="#000000"
     borderopacity="0.25"
     inkscape:showpageshadow="2"
     inkscape:pageopacity="0.0"
     inkscape:pagecheckerboard="0"
     inkscape:deskcolor="#d1d1d1"
     inkscape:document-units="mm"
     inkscape:zoom="1.654314"
     inkscape:cx="371.45307"
     inkscape:cy="468.1699"
     inkscape:window-width="3840"
     inkscape:window-height="2071"
     inkscape:window-x="7671"
     inkscape:window-y="-9"
     inkscape:window-maximized="1"
     inkscape:current-layer="layer1" /><defs
     id="defs1"><mask
       maskUnits="userSpaceOnUse"
       id="mask6"><path
         fill-rule="evenodd"
         fill="#fceed7"
         d="m 58.373431,177.86902 c 2.645568,9.85044 4.762764,17.8779 7.170208,27.25208 2.437871,6.1222 5.028935,5.92508 6.588125,8.44021 1.294606,2.08836 2.882106,6.68232 0.529167,10.34521 -2.35294,4.13914 -10.924117,7.48268 -14.552084,10.84792 -3.627966,3.84148 -10.463212,11.6152 -18.785416,11.6152 -8.322204,0 -13.370455,-5.28161 -11.086042,-11.6152 3.272102,-7.09295 12.479602,-10.76458 15.345833,-18.28271 1.686455,-3.50758 -0.09313,-9.457 -2.38125,-16.66875 -1.509448,-6.14786 -3.32052,-12.82303 -4.259791,-16.64229 4.837906,-2.75696 19.642402,-6.19019 21.43125,-5.29167 z"
         id="path6"
         style="display:inline;stroke-width:0.264583" /></mask></defs><g
     inkscape:label="Layer 1"
     inkscape:groupmode="layer"
     id="layer1"><path
       fill-rule="evenodd"
       fill="#40210d"
       d="m 165.57213,23.166079 c 0.56409,-0.408516 3.74571,-0.189971 3.70417,1.878542 -0.0611,3.635375 -3.22236,9.220729 -2.64584,11.90625 0.60669,3.3147 3.57294,6.333331 4.68207,8.146256 0.59425,0.97155 1.71767,3.796771 1.42981,6.643952 0.195,2.46724 -0.71094,4.701911 -1.5875,6.614584 1.40044,0.19341 1.85208,0.623358 1.85208,1.613958 0,1.46685 0.19976,4.520671 -1.05833,6.852708 -0.25427,1.126067 -2.53789,4.401873 -5.84729,6.614584 -3.54463,2.369873 -8.88419,3.039798 -13.22918,1.613958 -1.73117,-0.235215 -7.72557,-3.097213 -9.26042,-7.170208 -1.16681,-3.096948 -1.20914,-6.824927 -0.26458,-10.292292 0.93133,-2.9464 2.83554,-5.646738 3.46604,-6.641042 1.98755,-2.002896 3.38561,-3.175 4.47146,-3.175 1.08585,0 1.86769,1.521354 1.85208,2.38125 1.03743,-0.566737 2.1344,-1.270264 2.64584,-2.38125 1.38615,-3.342746 -2.38866,-7.160418 -1.32292,-11.615208 1.16364,-4.339431 9.71789,-11.981127 11.11251,-12.991042 z m 42.59792,3.96875 c 3.83116,0 11.07175,5.846234 16.95979,10.31875 3.24723,3.04165 12.63226,4.953529 11.37708,9.022292 -0.77893,4.545012 -9.32974,6.058958 -12.96458,6.058958 -3.1586,0 -3.23056,0.01376 -4.78896,-0.502708 -0.43656,2.894012 -1.17528,6.143096 -1.20518,8.240977 0.94007,4.432829 4.16825,19.433646 4.40664,21.921523 1.48458,1.74969 0.98795,0.408781 1.5875,2.38125 1.0279,2.321719 1.71318,6.561137 1.85208,8.46667 5.77824,2.81278 12.36689,6.85641 13.49375,7.911039 1.60311,1.05463 3.24326,3.02762 2.35479,5.29166 -1.65258,4.21138 -7.65863,6.23703 -12.43541,7.4348 -4.77679,1.67401 -10.01369,1.59094 -12.96459,1.5875 0.25427,7.36626 -3.80471,12.31926 -7.67291,15.05478 -3.86821,2.73553 -9.14665,3.20146 -14.55209,3.20146 -5.40543,0 -10.06157,-0.90567 -11.64166,-1.61396 -0.79878,0.78608 -1.04775,1.32292 -3.43959,1.32292 -2.39183,0 -16.90687,0.26458 -16.90687,0.26458 4.71329,4.1873 3.14986,12.18486 0,14.84313 3.90287,0.27728 10.30208,0 12.96458,0 3.13875,0 4.10395,1.02764 5.52979,1.85208 1.37954,-1.23931 3.47213,-1.87854 6.11188,-1.87854 2.2008,0 7.70625,0 11.1125,0 6.49155,0 11.12123,2.00766 11.90625,2.38125 0.83423,-0.72628 1.61131,-2.35479 3.70416,-2.35479 2.56911,0 8.97864,0 12.17084,0 3.66845,0 4.87204,4.63126 6.58812,8.70479 1.62719,-5.0628 2.75617,-8.70479 6.37646,-8.70479 4.09655,0 10.12349,0 10.31875,0 1.08691,0 1.81875,-0.1225 3.43958,0.76729 2.09709,0.88979 3.55997,3.20278 2.3548,5.58271 -1.20518,2.85618 -6.75852,13.27785 -8.73125,17.43604 -1.97274,4.15819 -2.18414,5.32527 -3.70417,8.22854 0.0815,5.49355 0.58394,11.50567 0.79375,13.75833 0.20981,2.72892 -2.25504,5.55625 -4.73604,5.55625 -2.00475,0 -5.93725,0 -10.84792,0 -4.43442,0 -6.536,-1.77905 -6.37646,-5.55625 0.15955,-3.30094 0.6731,-7.20698 0.79375,-10.3452 0.12065,-3.13823 -1.88013,-6.32937 -4.49791,-10.84792 -0.9398,3.55309 -3.12129,5.91899 -5.26521,7.43479 1.25783,1.73382 0.9189,1.43113 3.41312,5.26521 2.49423,3.83408 7.41892,9.60702 2.11667,12.72646 -0.7022,1.36393 -10.17111,2.09021 -11.64167,2.09021 -1.47055,0 -4.04786,-0.15267 -7.38187,-3.67771 -1.18507,2.09232 -2.84057,3.175 -5.31813,3.175 -2.47756,0 -7.34007,0 -9.49854,0 -1.68222,0 -3.12658,-0.83026 -3.46604,-1.08479 -0.73634,0.64928 -2.98953,1.08479 -5.00063,1.08479 -1.53484,0 -16.50576,0 -19.07646,0 -4.07035,0 -4.73922,-0.15849 -6.58813,-1.5875 -2.89692,1.58459 -4.50294,2.11666 -10.87437,2.11666 -6.37143,0 -11.8536,-2.94851 -14.26105,-4.49791 -1.51235,3.09139 -1.76635,4.47146 -10.08062,4.47146 -8.31426,0 -9.203,-1.59941 -10.31875,-2.88396 -0.91731,1.15781 -1.06071,1.98384 -4.206872,2.38125 -2.66991,0.87365 -9.960504,0.89958 -13.229167,-0.26459 -3.237177,-1.43801 -2.842418,-2.63868 -3.175,-6.90562 -2.867289,3.22818 -4.638939,4.76726 -7.434791,6.08542 -1.547548,0.72945 -6.588125,1.61395 -6.588125,1.61395 0,0 -0.202142,3.28269 3.96875,7.40834 4.647141,4.6019 5.765535,9.23449 5.529791,12.7 -0.4699,7.62079 -8.303948,11.18923 -11.377083,12.7 -3.073135,1.98702 -6.224058,4.39499 -10.011304,8.57091 -3.787246,4.17618 -10.075598,7.22471 -12.980988,7.83325 -4.39076,1.70763 -10.574866,0.24051 -12.964583,-0.79375 -1.913467,-0.558 -4.21984,-2.22832 -6.641042,-6.37645 -6.313752,-12.99898 17.08785,-23.7617 15.875,-30.13605 -1.216554,-4.53548 -2.290498,-8.47566 -3.439583,-12.72645 -2.946135,0.56091 -7.285302,1.43907 -12.170833,0.8202 -6.034617,-0.2323 -11.954934,-2.18651 -13.493751,-3.96875 -2.7847388,-2.55613 0.480748,-11.55461 1.322917,-14.81666 0.842169,-2.7858 4.788958,-2.38125 4.788958,-2.38125 0,0 -3.807883,-3.43456 -5.053541,-6.08542 -1.245659,-2.17461 -2.8985108,-8.52487 -1.058334,-12.99104 1.840177,-4.46617 3.443288,-6.80244 6.641042,-9.23396 3.674004,-1.95527 7.911042,-3.62453 13.49375,-3.175 6.058959,0.92578 15.981892,0.97658 15.345834,9.23396 3.481123,-3.54621 2.090208,-2.26378 6.058958,-5.55625 3.730625,-3.29248 17.660408,-4.5548 23.01875,-1.5875 5.358342,2.9673 4.681273,3.61156 7.170208,5.84729 -0.04075,-6.00869 2.119313,-7.09533 8.969375,-7.40833 1.836473,-5.57186 3.254904,-8.98314 5.053542,-17.48896 -5.012531,1.21814 -10.325365,2.97259 -15.610417,2.38125 -4.808802,-0.59134 -9.463352,-3.52769 -11.90625,-5.55625 -1.966648,-2.02856 -2.760398,-3.88064 -2.936875,-3.70417 -1.567921,1.982 -3.647281,6.16083 -10.292291,7.96396 -2.063486,0.97129 -8.13435,2.15292 -14.022917,1.5875 -5.367073,-0.0868 -10.811933,-1.90791 -14.313958,-4.25979 -2.795059,-1.87695 -0.89535,-9.38847 -0.79375,-10.82145 0.357452,-3.96267 0.6731,-6.06955 2.407708,-7.17021 2.210858,-1.10067 5.559954,-0.39397 7.117292,-0.26459 -2.163498,-1.04669 -6.460596,-4.16771 -7.9375,-7.9375 -1.902619,-4.856949 -2.061105,-11.638219 -1.058334,-14.287494 1.002771,-2.649273 4.255294,-7.668154 8.995834,-10.054167 5.112543,-2.573337 11.833489,-2.38125 13.758333,-2.38125 3.709723,0 12.267142,3.017309 13.758333,3.995209 1.491192,1.45415 1.456002,4.121943 1.5875,7.14375 5.346436,-7.980098 10.882577,-10.752932 19.076459,-11.138959 6.890543,-0.304535 12.941035,3.454665 14.374283,4.547659 3.249612,2.478616 6.219292,7.890668 6.792382,9.7663 0.96097,-1.662377 1.72112,-4.681802 5.55625,-8.73125 3.07181,-2.413265 5.34749,-3.478477 10.58333,-4.788959 5.71209,-1.310481 14.96113,1.532467 17.43604,2.407709 1.26789,-1.27635 2.38337,-2.143125 3.70417,-2.143125 1.3208,0 11.99991,0 13.75833,0 1.75843,0 3.54225,2.483908 3.73064,3.730625 0.52811,-1.871927 4.86145,-3.992563 7.91104,-3.730625 1.16099,-4.373563 4.03648,-8.329348 6.11187,-9.498542 1.90289,-3.652573 3.94362,-9.605433 10.05417,-19.84375 4.32911,-6.205802 10.50052,-13.989315 13.49375,-16.66875 3.46948,-2.203186 5.93196,-4.259792 9.76313,-4.259792 z m -30.1625,6.641042 c 0.36142,0 0.80592,2.303198 1.85208,3.175 1.01944,1.319477 2.38125,1.441185 2.38125,1.5875 0,0.586317 -1.50125,0.839258 -2.38125,1.5875 -1.08955,1.459442 -1.37557,3.175 -1.85208,3.175 -0.41143,0 -0.73449,-1.386152 -1.5875,-2.407708 -0.9324,-1.116542 -2.88396,-1.656292 -2.88396,-2.354792 0,-0.222515 1.93357,-0.497152 2.88396,-1.613958 0.86889,-1.021027 1.24671,-3.148542 1.5875,-3.148542 z m -37.57085,2.38125 c 0.56277,0 1.03347,3.061758 2.38125,4.471458 1.27133,1.329796 3.20146,1.230577 3.20146,1.852084 0,0.588698 -1.76133,0.522287 -2.93687,1.613958 -1.38113,1.800225 -2.01163,4.736042 -2.64584,4.736042 -0.58737,0 -0.60933,-2.567517 -1.85208,-3.96875 -1.24169,-1.399911 -3.94229,-1.633273 -3.94229,-2.38125 0,-0.768086 2.65006,-0.758032 3.94229,-2.354792 1.22555,-1.05066 1.31974,-3.96875 1.85208,-3.96875 z m -5.97058,22.013069 c 0.43735,0 1.2147,2.261129 2.02829,3.360473 1.29196,1.101725 2.61938,1.042193 2.61938,1.5875 0,0.52652 -1.71318,0.760941 -2.88396,1.613958 -0.75883,1.404408 -0.99827,3.175 -1.85209,3.175 -0.34845,0 -0.5842,-1.589617 -1.85208,-2.672292 -0.8247,-1.117335 -2.67229,-1.499923 -2.67229,-2.116666 0,-0.645584 1.78911,-0.986367 2.67229,-2.354792 1.22555,-0.757238 1.53035,-2.593181 1.94046,-2.593181 z m -31.07108,69.00359 c 2.09841,-2.39342 3.44593,-4.77625 3.99521,-6.64104 1.59491,2.99085 3.05487,5.18848 5.52979,6.64104 -1.32239,0 -8.27722,0 -9.525,0 z"
       id="path1"
       style="stroke-width:0.264583" /><path
       fill-rule="evenodd"
       fill="#f0af47"
       d="m 162.75577,31.494749 c 1.18718,1.517915 -0.78978,5.721879 0,8.228542 1.23454,4.527814 6.77783,7.526341 6.11187,12.700001 -0.12012,4.77017 -4.83447,9.04822 -4.25979,10.29229 0.57467,1.24407 1.97564,0.74242 4.25979,0.79375 -1.27264,5.19165 -6.0616,8.07508 -10.84792,8.20208 -4.41801,0.13018 -9.09637,-2.33071 -10.3452,-5.55625 -2.46883,-6.37672 1.73778,-11.83534 2.38125,-12.67354 0.22039,1.24645 -0.13626,3.12076 2.4077,2.35479 3.02022,-0.76596 8.94266,-4.83975 7.64646,-11.350621 -0.61727,-1.790171 -1.23481,-3.818996 -2.09021,-6.085417 0.67469,-3.108854 3.55442,-4.387056 4.73605,-6.905625 z M 44.248895,80.204542 c 4.146814,-0.25956 14.207066,1.06548 16.139583,2.91042 0.322527,2.86781 -0.09551,8.81671 -0.79375,10.58333 -1.824831,0.97208 -12.00785,-5.39433 -14.578542,-0.26458 -2.570691,5.60599 9.976115,6.836828 14.843125,13.202698 5.343261,6.36588 2.634721,11.63559 0.529167,14.81667 -4.114006,7.41415 -23.034625,8.391 -29.104167,3.43958 0.343694,-3.03291 0.901965,-9.16225 1.825625,-10.05416 4.272757,1.82615 11.04265,4.4069 15.372292,1.32291 1.003565,-0.69876 1.278202,-2.14074 0.767292,-2.64583 -3.663421,-5.06703 -11.594571,-5.54276 -15.345834,-10.55687 -4.931833,-6.040968 -1.50786,-15.008488 0.820209,-17.727088 2.804319,-2.24234 5.854435,-4.29127 9.525,-5.02708 z m 44.833645,0.67019 c 2.287853,0.23971 12.40367,3.615 14.16844,15.20481 2.24102,12.066058 0.54821,16.839928 -1.87854,23.256868 -2.461422,6.50849 -11.783487,8.18701 -13.758337,8.46667 -6.133042,0.8681 -15.108767,-2.22091 -18.758958,-9.26042 -3.459427,-7.62846 -2.9591,-17.60828 -1.613959,-22.727698 1.345142,-4.64318 6.528859,-12.14253 10.609792,-14.02292 4.557183,-1.40414 6.199187,-1.44436 11.231562,-0.91731 z m 34.54135,0.38814 c 4.37833,-0.34766 10.75161,0.78317 13.22917,2.11667 1.45626,0.94297 0.50006,2.92232 0.50271,5.02708 0.002,2.45481 0.30215,4.54475 -0.50271,5.55625 0.15002,0 0.0617,0 -0.26459,0 -3.97615,-0.50191 -8.41665,-3.28745 -12.69999,-0.52916 -4.78208,3.95657 -5.24378,17.549808 -0.26459,21.404788 4.32541,3.02022 9.7618,0.62706 13.99646,-0.26459 0.67125,1.37928 0.46487,3.85842 0.26458,5.55625 -0.0881,1.49913 -0.17647,2.99879 -0.26458,4.49792 -2.13307,1.57295 -7.82267,2.89904 -12.96458,2.38125 -4.33996,-0.43709 -8.23966,-2.49634 -10.02771,-3.70417 -4.24206,-3.49117 -6.72095,-12.46266 -6.11187,-20.61104 0.65722,-8.296268 4.65402,-15.710688 6.11187,-17.197908 3.50599,-2.16879 5.09376,-3.40943 8.99583,-4.23334 z m 21.16667,0.26459 c 1.20306,0.1643 6.14759,0.15001 9.76312,0 0.59002,0.24447 1.27821,0.66754 1.32292,0.79375 -0.2204,6.48758 -0.87074,16.99365 -0.26458,17.727078 0.60616,1.20967 1.016,-0.252938 1.34937,-1.322918 0.80963,-0.59372 6.21771,-10.44972 8.99583,-16.93333 3.64967,0 11.26914,-0.23627 12.17084,0.52917 0,0.26458 0,0.76729 0,0.79375 -3.64199,6.49922 -7.52343,13.02702 -11.64167,19.049998 4.11321,8.07905 9.04214,16.33934 13.20271,23.52145 -0.35269,0.29105 -0.70564,1.05834 -1.29646,1.5875 -3.90657,-0.0881 -8.05259,-0.17647 -12.43542,-0.26458 -2.4204,-5.74199 -7.71419,-16.52958 -9.78958,-18.25625 -0.38523,0.37677 -0.82841,0.91837 -0.82021,1.85208 0,5.82031 0.90382,15.28445 0.26459,15.875 -0.74004,0.54214 -7.76156,0.26459 -11.8798,0.26459 -0.0264,-0.17648 -0.52916,-0.35269 -0.55562,-0.52917 0.66966,-13.99381 0.65961,-27.388868 0.26458,-43.365208 0,-0.49159 0.62257,-1.01097 1.34938,-1.32291 z m 41.80416,1.85208 c 7.77426,1.44859 15.2146,4.53019 21.16667,7.14375 0.15002,1.47267 0.0617,2.70774 -0.26458,3.70417 0.15002,0 0.0617,0 -0.26459,0 -2.72071,-1.76557 -10.47247,-4.14761 -12.17083,-2.91042 -1.22211,1.71344 -1.72508,2.62811 -1.04193,4.71196 0.68342,2.08386 7.31547,4.089928 12.6836,7.988038 2.53815,1.93516 6.75455,8.44762 3.14854,15.84854 -1.37848,2.82893 -4.74133,5.87137 -8.99583,7.14375 -6.87547,2.05634 -15.66254,1.01838 -19.28813,-1.5875 0.4146,-3.61553 0.59082,-7.49697 0.52917,-11.1125 7.78483,1.9005 14.45022,4.8514 16.11312,0.26458 1.66291,-4.58681 -10.9429,-7.88934 -15.05479,-12.67354 -3.37688,-4.004468 -2.27277,-10.295198 -1.5875,-12.435408 2.1508,-3.70205 3.20993,-4.55534 5.02708,-6.08542 z m -102.129159,7.9375 c -2.120106,0.5379 -4.038071,2.55958 -5.053541,4.7625 -3.439848,8.507408 -1.28958,22.501748 6.376458,21.140208 2.649537,-0.4154 4.758267,-2.37067 5.794375,-5.29167 1.620573,-4.5683 1.205971,-11.19029 -0.264583,-15.848538 -1.275821,-3.59675 -5.798609,-4.62809 -6.852709,-4.7625 z m 35.454169,40.454788 c 2.6707,-0.0915 3.12737,-0.059 4.23333,0.79375 2.17832,2.99826 4.38335,6.26216 6.32354,9.02229 0.17648,0.15002 0.35269,0.0617 0.29104,-0.26458 0,-2.76013 0,-5.75945 0,-8.75771 0.41461,-0.26458 0.59082,-0.76729 0.52917,-0.79375 1.32291,0.0881 2.88396,0.17648 3.96875,0.26459 0.26458,0.17647 0.76729,0.35269 0.79375,0.52916 0.0617,6.08489 0.15002,12.17137 -0.26459,18.01813 -1.46341,0 -3.02524,0 -4.76249,0 -1.96639,-2.67203 -4.17169,-5.84756 -6.37646,-8.99584 -0.17648,0.32624 -0.35269,0.41461 -0.76729,0.26459 0.0617,3.14828 0.15002,5.53005 -0.26459,8.20208 0.006,0.6178 -0.10504,0.52917 -2.14312,0.52917 -2.03809,0 -1.88304,-0.15558 -2.88396,-0.79375 0.15002,-5.75839 0.0617,-10.43411 -0.26458,-16.43063 0,-1.25306 0.93133,-1.5875 1.5875,-1.5875 z m 37.83541,8.49313 c 0,3.82164 -1.6637,8.06979 -5.55625,9.525 -3.47609,1.95897 -8.9654,1.09537 -11.90625,0.79375 0.15002,-6.02298 -0.077,-14.06843 -0.26458,-18.28271 3.08716,-0.36645 9.03922,-1.06151 12.7,0.79375 3.67453,1.63512 5.02708,5.6986 5.02708,7.17021 z m -50.53541,-8.22854 c 2.91121,0 4.30556,-0.0251 4.49791,1.5875 0.66861,1.61263 3.42477,11.28897 3.70417,13.5202 0.75565,2.70749 1.54199,3.43959 -0.26458,3.43959 -0.99642,0 -2.2315,0 -3.70417,0 -0.9353,-0.41064 -0.92472,-1.33456 -1.5875,-2.91042 -1.96638,0 -4.17168,0 -6.61458,0 -0.35402,1.46368 -0.3392,2.32516 -1.05834,2.64583 -0.24288,0.79693 -0.51302,0.52917 -3.174995,0.52917 -2.185723,0 -1.482196,0.38074 -1.852084,-0.52917 1.737254,-5.84676 3.236909,-11.66865 4.497919,-17.75354 0.80248,-0.62071 3.12129,-0.52916 5.55625,-0.52916 z m -0.79375,3.73062 c -0.37915,2.61911 -1.26127,5.26547 -1.87854,7.40833 0.0881,0.32624 0.17647,0.41461 0.26458,0.26459 1.08479,0 2.6461,0 3.96875,0 -0.44318,-2.62864 -0.69321,-3.38244 -2.35479,-7.67292 z m 38.36458,1.05833 c 0,3.87271 0.32623,6.85298 0.26458,9.78959 5.724,0.98742 8.53784,-4.59343 6.05896,-7.9375 -2.47888,-2.86782 -4.02325,-1.95792 -6.32354,-1.85209 z m 28.28396,-59.557708 c 1.04748,-3.2377 2.50428,-5.29378 4.25979,-6.61458 2.12831,-0.76623 9.62342,-0.002 19.81729,3.175 10.17905,3.17262 18.86797,8.26162 22.78062,10.08063 2.0328,2.52782 1.9558,5.84464 1.82563,7.9375 -2.14815,-0.8136 -16.33987,-7.71922 -27.49021,-11.1125 -9.25274,-2.50587 -20.19697,-3.46869 -21.19312,-3.46605 z"
       id="path1-1"
       style="stroke-width:0.264583" /><path
       fill-rule="evenodd"
       fill="#6b5055"
       d="m 207.4952,32.086964 c 2.08465,0 7.45331,4.96544 12.19729,7.96396 4.78578,3.19246 10.48067,5.3295 10.83363,6.33386 0.38735,1.10225 -7.96634,1.31154 -10.86009,0.78343 -2.89401,-0.52811 -4.59555,-1.47796 -5.82083,-3.70417 -1.22529,-2.2262 -3.11574,-3.36867 -3.0869,-2.4339 0.0288,0.9443 1.61079,3.19485 2.02856,5.87349 0.41778,2.67811 0.31565,5.41311 0,7.17021 -0.96996,-0.11457 -1.53379,-0.67628 -3.17685,-0.52309 1.94284,5.8129 4.06982,16.07662 4.49977,22.4835 -0.90858,-0.34872 -8.40819,-4.69715 -16.40417,-6.90562 -7.35541,-2.03147 -15.22597,-2.22938 -16.66875,-2.11667 0.87154,-2.08994 6.42726,-13.85041 13.22917,-23.01875 5.03264,-6.78392 11.53345,-11.90625 13.22917,-11.90625 z m 5.84729,61.9125 c 4.71699,1.53749 24.92851,8.884966 23.78604,11.641666 -1.14247,2.75669 -12.44865,4.74345 -21.93396,4.52437 -0.44873,-3.01678 -1.68857,-5.28531 -3.20146,-7.43479 0.74242,-0.89932 2.05264,-2.786857 2.11667,-4.736036 0.0577,-1.29831 -0.1061,-2.20557 -0.76729,-3.99521 z"
       id="path1-2"
       style="stroke-width:0.264583" /><path
       fill-rule="evenodd"
       fill="#fded9b"
       d="m 162.08002,54.866619 c 1.6174,2.42491 -2.59689,12.92913 -3.70417,15.34584 -2.44104,-0.16537 -5.16758,-1.67958 -5.29167,-4.49792 -0.0553,-1.25651 0.40005,-3.46789 2.11667,-5.52979 2.1336,-2.02883 5.33109,-3.23824 6.87917,-5.31813 z"
       id="path1-11"
       style="stroke-width:0.264583" /><path
       fill-rule="evenodd"
       fill="#ea8e34"
       d="m 30.632757,152.5202 c 1.787525,0 8.184357,0.68156 11.138959,2.38125 0.132556,4.08067 0.150018,5.55651 -0.264584,8.99583 0.1651,0.65828 0.106627,1.0959 -0.291041,1.08479 -2.54979,-0.51726 -10.52195,-4.35345 -12.7,-1.05833 -0.176477,0.8554 -0.526521,3.09271 0.79375,3.94229 0.846402,0.54478 5.315214,2.69822 8.73125,4.7625 1.912143,1.15544 3.056995,2.58868 4.497916,3.96875 -1.427162,0.49609 -4.500033,1.33879 -6.35,1.87854 -1.849966,1.016 -2.900627,2.68632 -2.988468,4.08967 -0.225161,3.59198 1.173162,7.8351 2.459302,11.78533 -3.124465,0.85619 -6.117696,1.53167 -9.260417,1.32292 -3.677973,0.27252 -7.487708,-0.48631 -11.086042,-2.11667 0.529167,-3.02472 1.031875,-5.49487 1.561042,-8.99583 0.204258,-0.635 0.803275,-0.74031 1.349375,-0.79375 4.454525,1.98543 11.309879,3.44831 12.673542,1.29646 1.363662,-2.15186 0.34925,-3.44223 -0.767292,-4.49792 -0.640292,-1.05569 -8.647113,-4.63788 -11.90625,-7.14375 -1.290108,-1.26762 -3.298296,-5.44433 -2.910417,-9.525 0.849842,-3.98674 2.813579,-7.33928 6.323542,-9.49854 3.509962,-1.68302 7.208308,-1.87854 8.995833,-1.87854 z m 16.933334,22.48958 c 0.268023,-6.58363 2.54291,-13.29055 6.111875,-17.19792 3.922712,-3.78169 9.08632,-4.8723 12.673541,-4.7625 7.293769,0.22358 11.486886,3.30333 13.520209,6.35 6.11161,7.87824 5.802577,20.83673 1.031875,28.60146 -1.673225,3.04483 -4.484688,5.24351 -6.879167,6.08542 -2.394479,1.31815 -3.494088,1.58618 -6.323542,2.09021 -0.555625,-3.08663 -1.654175,-6.47489 -2.645833,-10.05417 2.227262,-0.0138 3.535362,0.21749 6.058958,-2.88396 1.050396,-0.95382 2.700338,-6.57384 1.878542,-11.64167 -0.580496,-6.5352 -6.485467,-10.48067 -10.31875,-7.69937 -3.357033,2.7813 -3.707342,6.37037 -3.531658,10.05866 -4.337844,-1.2483 -7.678738,0.36381 -11.57605,1.05384 z m 88.370839,-21.43125 c 3.7928,-0.65246 8.71617,0.31009 11.90625,1.32292 0.22119,2.8014 0.38682,7.99041 0.26458,10.08062 -2.60535,-0.36089 -5.63959,-1.87087 -9.525,-1.34937 -1.83329,0.24606 -4.631,2.86385 -6.05896,6.37645 -1.09378,4.43654 -0.5961,9.94437 1.5875,12.7 3.96214,4.84188 11.17971,1.72059 14.26105,1.05834 0.19314,2.45136 0.095,7.81314 -0.26459,9.78958 -8.99715,3.73248 -18.88543,2.11878 -23.52146,-4.49792 -4.4569,-6.57119 -3.66156,-18.82404 -2.38125,-23.54791 3.17897,-8.44947 9.93908,-11.28025 13.73188,-11.93271 z m 48.18062,-0.26458 c 1.17211,-0.0402 9.05563,0 13.4673,0 4.41166,0 9.86128,1.78488 11.90625,3.175 3.64595,2.47861 4.22354,7.11067 3.73062,10.84791 -0.0167,3.73724 -1.40996,6.88631 -2.91042,7.69938 -2.3487,2.39263 -3.55256,3.31973 -3.96875,3.43958 2.79427,6.14627 6.2746,10.12455 8.7048,15.875 -0.17648,0 -0.44371,0.98822 -7.40834,1.05833 -4.07299,0.41858 -5.59541,-1.8489 -7.67291,-7.14375 -1.53432,-3.4962 -3.14934,-6.98314 -3.9423,-7.67291 -1.06785,-0.82497 -2.05184,0.0156 -2.38125,1.03187 0.14685,1.01627 0.49874,8.80719 0.26459,12.19729 0.23865,0.77127 0.12673,1.04008 -0.29104,1.05834 -2.62414,0 -7.28266,0.21563 -10.05417,0 -0.6948,0.24368 -0.74665,-0.38444 -1.03188,-1.32292 0.32624,-9.63877 0.69136,-23.09892 0.26459,-28.60146 0.10292,-3.94282 0.20029,-8.87386 0,-10.05416 0.27596,-1.18031 0.62706,-1.54729 1.32291,-1.5875 z m 41.275,0.26458 c 2.08995,5.29114 4.20714,10.84845 6.05896,15.90146 0.45403,0.39502 0.762,0.30109 0.82021,0 2.17832,-5.14112 4.11877,-10.52222 6.05896,-15.90146 3.79201,0 7.05591,0 10.60979,0 0.84455,0 0.52917,0.44106 0.52917,0.52917 -4.16666,8.49577 -10.41771,21.02352 -12.43542,26.45833 0.32623,4.93845 0.67919,8.02614 0.52917,12.72646 0.21854,0.9308 0.29078,1.75842 -0.82021,1.5875 -3.52743,0.15002 -6.26216,0.32623 -9.78958,0 -1.12819,0.13203 -1.03188,-0.37915 -1.29646,-0.79375 0.4146,-4.43574 0.74348,-11.58029 0.76729,-13.52021 0.0238,-1.93993 -4.66593,-11.09583 -3.41313,-7.9375 1.72906,3.15833 -6.12192,-12.82383 -8.7577,-18.22979 -0.47625,-0.0691 -0.47705,-0.60775 -0.50271,-0.82021 5.81713,0 7.36415,0 11.64166,0 z m -136.551459,0.26458 c 10.709804,-0.20055 26.244819,-2.69054 29.395209,8.20209 2.81226,8.27458 -1.63036,12.80398 -3.175,14.02291 -1.27317,1.40997 -2.74373,2.10371 -2.67229,2.93688 2.37569,4.96834 4.76383,9.12521 5.58271,11.61521 1.29514,2.48999 2.18969,3.70945 1.29646,4.25979 -3.74253,0 -6.8072,0 -10.82146,0 -1.24831,-0.20452 -5.13795,-12.68995 -6.38995,-13.72553 -0.88345,-0.42862 -2.03677,-0.31564 -2.367763,-0.0328 0,4.82389 0.710143,13.17096 0,13.49375 -0.710141,0.79905 -3.469216,0.5043 -5.794375,0.26459 -2.470943,0.23627 -5.122068,0.30797 -5.318125,-0.26459 -0.347398,-0.35427 0.176477,-19.78316 0.264584,-30.1625 -0.0016,-3.27369 -0.729192,-9.05086 0,-10.60979 z m 66.145839,-0.26458 c 1.07024,0 14.50155,0.25903 21.98687,0 0.15002,3.17474 0.21061,6.61987 0.26459,9.78958 -3.69941,-0.16589 -12.44415,-0.83026 -12.99104,-0.26458 -0.5469,0.56568 -0.31777,6.50187 0,6.87917 0.31776,0.37729 10.18487,-0.4916 10.60979,0.0265 0.90117,0.9943 0.70749,7.37155 -0.26459,7.67291 -0.49582,0.77761 -9.15617,-0.37094 -10.08062,0.26459 -0.92445,1.11178 -0.59637,6.96965 -0.26458,7.14375 0.33178,0.65034 9.5586,0.13626 13.78479,-1.05834 0.17409,4.22778 -0.0349,8.72781 -0.79375,10.31875 -0.48684,0.40243 -1.1766,0.52917 -2.11667,0.52917 -3.83513,0 -6.58389,0.1987 -9.78958,0 -4.8641,0.30586 -8.84793,0.44185 -11.1125,0 -0.50906,0.16298 -0.85275,-0.21246 -1.08479,-0.52917 0.59266,-13.0683 0.66463,-25.67358 0,-39.95208 0.24659,-0.3265 0.78184,-0.82021 1.85208,-0.82021 z m 40.21667,7.9375 c -0.26459,0.0265 -0.93583,-0.0844 -1.29646,4.52437 0.11562,5.08503 -0.39608,5.76104 0.26458,7.1173 0.67998,0.66675 4.24154,0.75962 6.32354,-1.56105 2.15292,-1.91558 3.16945,-5.83538 0.55563,-8.22854 -2.13757,-2.39315 -2.9763,-1.97749 -5.84729,-1.85208 z m -94.45626,0.26458 c -0.26458,0.0265 -0.767291,0.52917 -0.793749,0.79375 -0.08811,3.61553 -0.176477,7.23239 -0.264584,10.84792 0.176477,0.0881 0.352693,0.17648 0.529163,0.0265 7.01993,1.72773 9.51839,-6.24311 5.8473,-10.87438 -1.35282,-0.50271 -2.86623,-0.82206 -5.31813,-0.79375 z"
       id="path1-89"
       style="stroke-width:0.264583" /><path
       fill-rule="evenodd"
       fill="#fceed7"
       d="m 58.373431,177.86902 c 2.645568,9.85044 4.762764,17.8779 7.170208,27.25208 2.437871,6.1222 5.028935,5.92508 6.588125,8.44021 1.294606,2.08836 2.882106,6.68232 0.529167,10.34521 -2.35294,4.13914 -10.924117,7.48268 -14.552084,10.84792 -3.627966,3.84148 -10.463212,11.6152 -18.785416,11.6152 -8.322205,0 -13.370455,-5.28161 -11.086042,-11.6152 3.272102,-7.09295 12.479602,-10.76458 15.345833,-18.28271 1.686454,-3.50758 -0.09313,-9.457 -2.38125,-16.66875 -1.509448,-6.14786 -3.320521,-12.82303 -4.259792,-16.64229 4.837907,-2.75696 19.642403,-6.19019 21.431251,-5.29167 z"
       id="path1-0"
       style="stroke-width:0.264583" /><path
       fill-rule="evenodd"
       fill="#ea8e34"
       d="m 39.986259,181.73567 c 0.865568,1.68147 1.490446,3.36322 2.115057,4.80574 5.800078,-1.44252 11.602029,-3.12427 17.402373,-4.80574 0.64951,2.45146 0.88297,2.0824 1.606372,5.07125 -7.049566,2.18594 -14.904195,4.1332 -21.953761,5.84123 -0.446036,-1.44253 -0.892607,-3.12426 -1.5796,-5.0447 1.222449,-0.0266 2.472207,-0.53102 3.453702,-0.79653 -0.535458,-1.44252 -1.311871,-3.12426 -1.847329,-5.0447 0.267729,0.15055 0.776414,0.0618 0.803186,-0.0266 z m 22.22149,9.85044 c 0.722332,2.06461 1.056994,3.6367 1.338644,5.31021 -6.897764,2.18594 -14.306356,4.13321 -21.445077,5.84123 -0.446036,-1.44252 -0.892608,-3.12426 -1.579598,-5.0447 4.6384,-1.05966 10.430177,-2.46288 21.686031,-6.10674 z m 6.960948,18.85124 c 2.853454,1.96 3.631475,3.44128 4.283662,6.10674 0.269871,0.33322 -0.843078,-3.45588 0.324219,0.51934 0.54108,1.84318 0.402664,5.33596 -1.154179,7.44597 -1.801278,2.95673 -4.985647,4.76007 -7.737363,6.08019 -0.02677,-0.1771 -1.271175,-1.34985 -2.945016,-4.77919 -0.575617,-1.95389 -1.043874,-5.05425 0.267729,-7.96531 1.41334,-2.19843 3.925976,-4.29145 6.960948,-7.40774 z m -38.04426,20.15224 c 6.11787,-0.004 15.330418,10.0124 14.216398,14.36412 -3.212478,1.8161 -6.577561,1.72343 -9.39728,1.301 -4.767715,-0.71449 -7.828659,-3.52916 -8.299593,-7.43429 -0.281383,-2.33384 0.395168,-4.89628 3.480475,-8.23083 z"
       id="path1-8"
       style="display:inline;stroke-width:0.266617"
       mask="url(#mask6)" /></g></svg>
